<mxfile host="app.diagrams.net" modified="2023-09-03T05:11:47.611Z" agent="Mozilla/5.0 (Windows NT 10.0; Win64; x64) AppleWebKit/537.36 (KHTML, like Gecko) Chrome/116.0.0.0 Safari/537.36" etag="r_o4wlCiAQrYnoEJZZxQ" version="21.7.2" type="github">
  <diagram name="Page-1" id="zLVNUE6qjhVlc1vWuTkX">
    <mxGraphModel dx="880" dy="438" grid="1" gridSize="10" guides="1" tooltips="1" connect="1" arrows="1" fold="1" page="1" pageScale="1" pageWidth="850" pageHeight="1100" math="0" shadow="0">
      <root>
        <mxCell id="0" />
        <mxCell id="1" parent="0" />
        <mxCell id="PpasHZo6JgZxo9Hok2W0-9" value="" style="edgeStyle=orthogonalEdgeStyle;rounded=0;orthogonalLoop=1;jettySize=auto;html=1;" edge="1" parent="1" source="PpasHZo6JgZxo9Hok2W0-1" target="PpasHZo6JgZxo9Hok2W0-2">
          <mxGeometry relative="1" as="geometry" />
        </mxCell>
        <mxCell id="PpasHZo6JgZxo9Hok2W0-1" value="start" style="rounded=0;whiteSpace=wrap;html=1;" vertex="1" parent="1">
          <mxGeometry x="410" y="40" width="120" height="50" as="geometry" />
        </mxCell>
        <mxCell id="PpasHZo6JgZxo9Hok2W0-6" value="" style="edgeStyle=orthogonalEdgeStyle;rounded=0;orthogonalLoop=1;jettySize=auto;html=1;" edge="1" parent="1" source="PpasHZo6JgZxo9Hok2W0-2" target="PpasHZo6JgZxo9Hok2W0-3">
          <mxGeometry relative="1" as="geometry" />
        </mxCell>
        <mxCell id="PpasHZo6JgZxo9Hok2W0-2" value="Generate a random word" style="rounded=1;whiteSpace=wrap;html=1;" vertex="1" parent="1">
          <mxGeometry x="410" y="130" width="120" height="60" as="geometry" />
        </mxCell>
        <mxCell id="PpasHZo6JgZxo9Hok2W0-10" value="" style="edgeStyle=orthogonalEdgeStyle;rounded=0;orthogonalLoop=1;jettySize=auto;html=1;" edge="1" parent="1" source="PpasHZo6JgZxo9Hok2W0-3" target="PpasHZo6JgZxo9Hok2W0-4">
          <mxGeometry relative="1" as="geometry" />
        </mxCell>
        <mxCell id="PpasHZo6JgZxo9Hok2W0-3" value="Generate as many blanks as letters in&amp;nbsp; word" style="rounded=1;whiteSpace=wrap;html=1;" vertex="1" parent="1">
          <mxGeometry x="410" y="230" width="120" height="60" as="geometry" />
        </mxCell>
        <mxCell id="PpasHZo6JgZxo9Hok2W0-11" value="" style="edgeStyle=orthogonalEdgeStyle;rounded=0;orthogonalLoop=1;jettySize=auto;html=1;" edge="1" parent="1" source="PpasHZo6JgZxo9Hok2W0-4" target="PpasHZo6JgZxo9Hok2W0-5">
          <mxGeometry relative="1" as="geometry" />
        </mxCell>
        <mxCell id="PpasHZo6JgZxo9Hok2W0-4" value="Ask the user to guess a letter" style="rounded=1;whiteSpace=wrap;html=1;" vertex="1" parent="1">
          <mxGeometry x="410" y="330" width="120" height="60" as="geometry" />
        </mxCell>
        <mxCell id="PpasHZo6JgZxo9Hok2W0-17" value="" style="edgeStyle=orthogonalEdgeStyle;rounded=0;orthogonalLoop=1;jettySize=auto;html=1;" edge="1" parent="1" source="PpasHZo6JgZxo9Hok2W0-5" target="PpasHZo6JgZxo9Hok2W0-16">
          <mxGeometry relative="1" as="geometry">
            <Array as="points">
              <mxPoint x="720" y="535" />
              <mxPoint x="720" y="535" />
            </Array>
          </mxGeometry>
        </mxCell>
        <mxCell id="PpasHZo6JgZxo9Hok2W0-42" style="edgeStyle=orthogonalEdgeStyle;rounded=0;orthogonalLoop=1;jettySize=auto;html=1;exitX=0;exitY=0.5;exitDx=0;exitDy=0;entryX=1;entryY=0.5;entryDx=0;entryDy=0;" edge="1" parent="1" source="PpasHZo6JgZxo9Hok2W0-5" target="PpasHZo6JgZxo9Hok2W0-14">
          <mxGeometry relative="1" as="geometry">
            <Array as="points">
              <mxPoint x="220" y="535" />
            </Array>
          </mxGeometry>
        </mxCell>
        <mxCell id="PpasHZo6JgZxo9Hok2W0-5" value="Is guessed letter in word" style="rhombus;whiteSpace=wrap;html=1;" vertex="1" parent="1">
          <mxGeometry x="330" y="470" width="280" height="130" as="geometry" />
        </mxCell>
        <mxCell id="PpasHZo6JgZxo9Hok2W0-20" value="" style="edgeStyle=orthogonalEdgeStyle;rounded=0;orthogonalLoop=1;jettySize=auto;html=1;" edge="1" parent="1" source="PpasHZo6JgZxo9Hok2W0-14" target="PpasHZo6JgZxo9Hok2W0-19">
          <mxGeometry relative="1" as="geometry" />
        </mxCell>
        <mxCell id="PpasHZo6JgZxo9Hok2W0-14" value="Replace blank letter with the letter" style="rounded=1;whiteSpace=wrap;html=1;" vertex="1" parent="1">
          <mxGeometry x="80" y="505" width="120" height="60" as="geometry" />
        </mxCell>
        <mxCell id="PpasHZo6JgZxo9Hok2W0-24" value="" style="edgeStyle=orthogonalEdgeStyle;rounded=0;orthogonalLoop=1;jettySize=auto;html=1;" edge="1" parent="1" source="PpasHZo6JgZxo9Hok2W0-16" target="PpasHZo6JgZxo9Hok2W0-23">
          <mxGeometry relative="1" as="geometry" />
        </mxCell>
        <mxCell id="PpasHZo6JgZxo9Hok2W0-16" value="Lose a life" style="rounded=1;whiteSpace=wrap;html=1;" vertex="1" parent="1">
          <mxGeometry x="770" y="505" width="120" height="60" as="geometry" />
        </mxCell>
        <mxCell id="PpasHZo6JgZxo9Hok2W0-18" value="NO" style="text;html=1;align=center;verticalAlign=middle;resizable=0;points=[];autosize=1;strokeColor=none;fillColor=none;" vertex="1" parent="1">
          <mxGeometry x="660" y="500" width="40" height="30" as="geometry" />
        </mxCell>
        <mxCell id="PpasHZo6JgZxo9Hok2W0-36" style="edgeStyle=orthogonalEdgeStyle;rounded=0;orthogonalLoop=1;jettySize=auto;html=1;exitX=0.5;exitY=1;exitDx=0;exitDy=0;" edge="1" parent="1" source="PpasHZo6JgZxo9Hok2W0-19" target="PpasHZo6JgZxo9Hok2W0-21">
          <mxGeometry relative="1" as="geometry" />
        </mxCell>
        <mxCell id="PpasHZo6JgZxo9Hok2W0-50" style="edgeStyle=orthogonalEdgeStyle;rounded=0;orthogonalLoop=1;jettySize=auto;html=1;entryX=0;entryY=0.5;entryDx=0;entryDy=0;" edge="1" parent="1" source="PpasHZo6JgZxo9Hok2W0-19" target="PpasHZo6JgZxo9Hok2W0-4">
          <mxGeometry relative="1" as="geometry">
            <mxPoint x="40" y="370" as="targetPoint" />
            <Array as="points">
              <mxPoint x="40" y="745" />
              <mxPoint x="40" y="526" />
              <mxPoint x="41" y="526" />
              <mxPoint x="41" y="360" />
            </Array>
          </mxGeometry>
        </mxCell>
        <mxCell id="PpasHZo6JgZxo9Hok2W0-19" value="Are all blanks filled?" style="rhombus;whiteSpace=wrap;html=1;rounded=1;" vertex="1" parent="1">
          <mxGeometry x="60" y="680" width="160" height="130" as="geometry" />
        </mxCell>
        <mxCell id="PpasHZo6JgZxo9Hok2W0-21" value="Game Over" style="whiteSpace=wrap;html=1;rounded=1;" vertex="1" parent="1">
          <mxGeometry x="430" y="1150" width="250" height="100" as="geometry" />
        </mxCell>
        <mxCell id="PpasHZo6JgZxo9Hok2W0-48" style="edgeStyle=orthogonalEdgeStyle;rounded=0;orthogonalLoop=1;jettySize=auto;html=1;exitX=0.5;exitY=1;exitDx=0;exitDy=0;entryX=0.808;entryY=0.05;entryDx=0;entryDy=0;entryPerimeter=0;" edge="1" parent="1" source="PpasHZo6JgZxo9Hok2W0-23" target="PpasHZo6JgZxo9Hok2W0-21">
          <mxGeometry relative="1" as="geometry">
            <Array as="points">
              <mxPoint x="830" y="980" />
              <mxPoint x="632" y="980" />
            </Array>
          </mxGeometry>
        </mxCell>
        <mxCell id="PpasHZo6JgZxo9Hok2W0-52" style="edgeStyle=orthogonalEdgeStyle;rounded=0;orthogonalLoop=1;jettySize=auto;html=1;exitX=1;exitY=0.5;exitDx=0;exitDy=0;entryX=1.008;entryY=0.383;entryDx=0;entryDy=0;entryPerimeter=0;" edge="1" parent="1" source="PpasHZo6JgZxo9Hok2W0-23" target="PpasHZo6JgZxo9Hok2W0-4">
          <mxGeometry relative="1" as="geometry">
            <mxPoint x="990" y="340" as="targetPoint" />
            <Array as="points">
              <mxPoint x="991" y="713" />
              <mxPoint x="991" y="353" />
            </Array>
          </mxGeometry>
        </mxCell>
        <mxCell id="PpasHZo6JgZxo9Hok2W0-23" value="Have they run out of lives" style="rhombus;whiteSpace=wrap;html=1;rounded=1;" vertex="1" parent="1">
          <mxGeometry x="740.5" y="645" width="179" height="135" as="geometry" />
        </mxCell>
        <mxCell id="PpasHZo6JgZxo9Hok2W0-38" value="YES" style="text;html=1;align=center;verticalAlign=middle;resizable=0;points=[];autosize=1;strokeColor=none;fillColor=none;" vertex="1" parent="1">
          <mxGeometry x="150" y="830" width="50" height="30" as="geometry" />
        </mxCell>
        <mxCell id="PpasHZo6JgZxo9Hok2W0-39" value="YES" style="text;html=1;align=center;verticalAlign=middle;resizable=0;points=[];autosize=1;strokeColor=none;fillColor=none;" vertex="1" parent="1">
          <mxGeometry x="749" y="790" width="50" height="30" as="geometry" />
        </mxCell>
        <mxCell id="PpasHZo6JgZxo9Hok2W0-45" value="YES" style="text;html=1;align=center;verticalAlign=middle;resizable=0;points=[];autosize=1;strokeColor=none;fillColor=none;" vertex="1" parent="1">
          <mxGeometry x="255" y="498" width="50" height="30" as="geometry" />
        </mxCell>
        <mxCell id="PpasHZo6JgZxo9Hok2W0-53" value="NO" style="text;html=1;align=center;verticalAlign=middle;resizable=0;points=[];autosize=1;strokeColor=none;fillColor=none;" vertex="1" parent="1">
          <mxGeometry y="518" width="40" height="30" as="geometry" />
        </mxCell>
        <mxCell id="PpasHZo6JgZxo9Hok2W0-54" value="Text" style="text;html=1;align=center;verticalAlign=middle;resizable=0;points=[];autosize=1;strokeColor=none;fillColor=none;" vertex="1" parent="1">
          <mxGeometry x="1025" y="508" width="50" height="30" as="geometry" />
        </mxCell>
      </root>
    </mxGraphModel>
  </diagram>
</mxfile>
